<svg width="150" height="150"  viewBox="0 0 64 64" fill="none" xmlns="http://www.w3.org/2000/svg">
<g clip-path="url(#clip0_173_101867)">
<rect width="64" height="64" rx="4" fill="#C32232"/>
<path d="M48.7906 10.3297C51.8635 7.46431 56.6294 7.46431 59.7023 10.3297L87.1848 35.9565C90.577 39.1196 90.577 44.4953 87.1848 47.6584L59.7023 73.2852C56.6294 76.1506 51.8635 76.1506 48.7906 73.2852L21.3081 47.6584C17.9159 44.4953 17.9159 39.1196 21.3081 35.9565L48.7906 10.3297Z" fill="#F7D4D7"/>
<path fill-rule="evenodd" clip-rule="evenodd" d="M28 32C29.1046 32 30 32.6434 30 33.4371V39.1853C30 39.9789 29.1046 40.6223 28 40.6223C26.8954 40.6223 26 39.9789 26 39.1853L26 33.4371C26 32.6434 26.8954 32 28 32Z" fill="black"/>
<path fill-rule="evenodd" clip-rule="evenodd" d="M56 32C57.1046 32 58 32.6434 58 33.4371L58 39.1853C58 39.9789 57.1046 40.6223 56 40.6223C54.8954 40.6223 54 39.9789 54 39.1853L54 33.4371C54 32.6434 54.8954 32 56 32Z" fill="black"/>
<path fill-rule="evenodd" clip-rule="evenodd" d="M51.925 47.6043C52.1972 48.6594 51.7052 49.7796 50.8259 50.1063C47.4881 51.3467 44.802 52.0042 42.0448 51.9998C39.2917 51.9953 36.5782 51.3308 33.1886 50.1117C32.3069 49.7945 31.8063 48.6797 32.0706 47.6217C32.3348 46.5636 33.2638 45.9629 34.1455 46.28C37.3979 47.4498 39.7591 47.9961 42.0493 47.9998C44.3355 48.0035 46.6614 47.4665 49.84 46.2853C50.7192 45.9586 51.6527 46.5491 51.925 47.6043Z" fill="black"/>
</g>
<defs>
<clipPath id="clip0_173_101867">
<rect width="64" height="64" rx="4" fill="white"/>
</clipPath>
</defs>
</svg>
